<?xml version="1.0" encoding="UTF-8" standalone="no"?>
<!-- Uploaded to: SVG Repo, www.svgrepo.com, Generator: SVG Repo Mixer Tools -->

<svg
   height="800px"
   width="800px"
   version="1.1"
   id="Layer_1"
   viewBox="0 0 512 512"
   xml:space="preserve"
   sodipodi:docname="chat-bot-cartorio-ofusfirj.svg"
   inkscape:version="1.4 (e7c3feb100, 2024-10-09)"
   inkscape:export-filename="chat-bot-cartorio-ofusfirj.png"
   inkscape:export-xdpi="96"
   inkscape:export-ydpi="96"
   xmlns:inkscape="http://www.inkscape.org/namespaces/inkscape"
   xmlns:sodipodi="http://sodipodi.sourceforge.net/DTD/sodipodi-0.dtd"
   xmlns="http://www.w3.org/2000/svg"
   xmlns:svg="http://www.w3.org/2000/svg"><defs
   id="defs4"><clipPath
     clipPathUnits="userSpaceOnUse"
     id="clipPath138"><path
       id="path139"
       style="fill:#ff0000;fill-opacity:1;fill-rule:nonzero;stroke:none;stroke-width:0.639999"
       d="m 157.61183,308.01697 v 109.6675 H 47.245788 v -109.6675 z m -52.55364,37.36637 h -5.1e-4 c -0.0155,-8.7e-4 -0.0313,-8.7e-4 -0.0473,0 -0.20037,0.0116 -0.43652,0.18667 -0.6691,0.59162 -0.10187,0.17738 -0.19778,0.3642 -0.29124,0.55444 -0.14564,0.30086 -0.28802,0.60573 -0.42716,0.91534 -0.14206,0.32927 -0.27683,0.66764 -0.40225,1.01591 -0.0367,0.0988 -0.0761,0.19454 -0.11351,0.29243 -0.13965,0.08 -0.28889,0.23439 -0.43861,0.48006 -0.0467,0.0766 -0.0987,0.14257 -0.15134,0.20707 -0.22003,0.28156 -0.43898,0.56552 -0.64969,0.86716 -0.2512,0.3674 -0.49315,0.75316 -0.76121,1.08606 -0.2853,0.38953 -0.57133,0.77788 -0.86028,1.15959 -0.299592,0.40831 -0.60253,0.80909 -0.903089,1.21537 -0.926695,1.25264 -0.162561,2.81039 0.765689,1.56105 0.0803,-0.10815 0.16095,-0.21588 0.24145,-0.3237 0.16982,-0.003 0.37191,-0.11092 0.59742,-0.38625 0.32075,-0.39162 0.62895,-0.8119 0.93944,-1.22636 0.2169,-0.29611 0.42822,-0.60374 0.63873,-0.9128 0.19594,-0.0147 0.42408,-0.18128 0.65467,-0.6043 0.12483,-0.22901 0.25044,-0.45638 0.36791,-0.69643 0.10341,-0.19219 0.19148,-0.4044 0.28128,-0.61445 0.0836,0.1556 0.18573,0.13399 0.32958,-0.30511 0.0126,-0.0385 0.0131,-0.0414 0.0194,-0.0609 2.5e-4,-8.7e-4 0.002,-0.004 0.002,-0.005 0.003,-0.007 0.007,-0.0174 0.0134,-0.0363 0.0331,-0.0811 0.0425,-0.0855 0.0881,-0.17749 0.0698,-0.13739 0.13542,-0.28048 0.19516,-0.43104 0.0228,-0.058 0.0457,-0.11584 0.0682,-0.17411 0.0486,-0.0672 0.0965,-0.13555 0.14438,-0.20453 0.0816,-0.12029 0.15894,-0.247 0.24145,-0.36512 0.0287,-0.0453 0.0543,-0.078 0.0841,-0.12002 0.4189,-0.59056 0.476,-1.24806 0.33057,-1.6574 0.33418,-0.84332 0.13116,-1.6143 -0.28775,-1.64472 z m -6.390856,11.99567 c -0.09808,-0.005 -0.216597,0.0556 -0.344012,0.20961 -0.102087,0.1234 -0.04883,0.0593 -0.160308,0.19354 -0.214442,0.26054 -0.428441,0.52264 -0.621809,0.82828 -0.457928,0.72384 -0.0169,1.47255 0.446567,0.75898 0.170035,-0.2618 0.356785,-0.48866 0.543151,-0.71503 0.109631,-0.13199 0.05647,-0.0681 0.158814,-0.19186 0.382259,-0.46208 0.271832,-1.06874 -0.02241,-1.08352 z m -2.53802,2.28706 c -0.187684,0.007 -0.407999,0.14588 -0.635253,0.46824 -0.08837,0.12535 -0.173503,0.25621 -0.2539,0.39639 -0.114951,0.20762 -0.228299,0.41945 -0.32609,0.65163 -0.07769,0.16371 -0.158809,0.32227 -0.239464,0.48176 -0.07164,0.13928 -0.142714,0.27969 -0.219053,0.4116 -0.08541,0.14336 -0.17615,0.27711 -0.261867,0.42006 -0.109455,0.15523 -0.216662,0.31517 -0.325093,0.47245 -0.154213,0.23224 -0.303226,0.47541 -0.445573,0.72855 -0.156107,0.27425 -0.312731,0.54757 -0.468473,0.82236 -0.05695,-0.0763 -0.106285,-0.16579 -0.171261,-0.23918 -0.07916,-0.0976 -0.137336,-0.21459 -0.220047,-0.31019 -0.0057,-0.006 -0.133559,-0.20398 -0.09111,-0.11748 -0.0036,-0.007 -0.0085,-0.0129 -0.01144,-0.0135 -0.058,-0.13672 -0.131945,-0.2737 -0.239963,-0.37864 -0.07366,-0.0905 -0.155209,-0.206 -0.249919,-0.273 -0.05805,-0.0667 -0.111097,-0.13494 -0.18022,-0.19354 -0.0049,-0.004 0.0083,0.0102 0.01244,0.0152 -0.09162,-0.095 -0.1918,-0.17982 -0.289747,-0.26792 -0.109305,-0.0554 -0.159277,-0.20271 -0.262363,-0.26961 -0.232209,-0.1507 -0.444775,-0.21707 -0.613846,-0.21807 -0.430934,-0.003 -0.58439,0.4131 -0.0936,0.91619 -0.127673,0.17431 -0.125685,0.45564 0.166282,0.76742 0.117452,0.12541 0.212136,0.26411 0.306175,0.40653 0.0444,0.0551 0.109499,0.1573 0.127449,0.202 0.07998,0.15437 0.116452,0.21979 0.218554,0.34145 0.0796,0.0844 0.149097,0.177 0.227516,0.26369 0.0823,0.10881 0.188861,0.19508 0.291241,0.28399 0.08369,0.10051 0.170417,0.19981 0.257387,0.2975 0.04753,0.0759 0.115979,0.13426 0.180221,0.19608 -0.06208,0.0972 -0.124462,0.1937 -0.186195,0.2916 -0.86567,1.37273 -0.04824,2.85769 0.816963,1.48413 0.116771,-0.18537 0.234513,-0.36894 0.352477,-0.5519 0.007,0.0119 0.01723,0.0228 0.02289,0.0355 0.03096,0.0555 0.08429,0.1227 0.09758,0.1758 0.04432,0.12807 0.112089,0.23078 0.178729,0.3423 0.07651,0.0851 0.119121,0.17272 0.17773,0.26792 0.04589,0.093 0.09115,0.18836 0.142383,0.27976 0.05171,0.10103 0.138134,0.18784 0.182213,0.29243 0.04416,0.12962 0.133676,0.23674 0.21756,0.34399 -0.05566,-0.0458 0.131596,0.23151 0.138899,0.24341 0.04722,0.0917 0.105311,0.18049 0.161301,0.26539 0.05802,0.12355 0.181419,0.20313 0.254898,0.31272 0.05242,0.09 0.151077,0.15372 0.190176,0.25102 0.08396,0.15026 0.211539,0.26736 0.322606,0.39639 0.06858,0.10864 0.156155,0.20624 0.245935,0.29835 0.02136,0.0228 0.04763,0.0404 0.0702,0.0617 0.01384,0.10202 0.01802,0.2086 0.06621,0.2975 0.07328,0.23392 0.159407,0.46362 0.238466,0.69558 0.08205,0.22027 0.153237,0.44478 0.241457,0.66263 0.350048,0.86448 1.194308,0.57877 0.969805,-0.23074 0.196388,-0.12462 0.296091,-0.42836 0.107533,-0.84433 -0.0257,-0.0567 -0.05117,-0.11325 -0.08214,-0.16735 -0.09402,-0.14926 -0.09389,-0.12412 -0.184204,-0.28567 -0.09768,-0.11004 -0.117117,-0.28109 -0.21955,-0.38879 -0.07558,-0.099 -0.164483,-0.1883 -0.257883,-0.2713 l -10e-4,-0.002 c -0.05211,-0.1227 -0.126297,-0.23419 -0.206607,-0.34061 -0.07253,-0.0936 -0.02798,-0.0351 -0.0921,-0.14537 -0.03969,-0.0742 -0.06347,-0.15417 -0.105046,-0.23327 -0.02912,-0.0754 -0.05202,-0.15478 -0.08513,-0.23158 -0.04947,-0.10201 -0.101755,-0.2015 -0.151345,-0.30342 -0.08972,-0.12121 -0.146854,-0.26039 -0.221044,-0.39047 -0.05864,-0.0785 -0.117069,-0.15607 -0.173748,-0.23497 -0.0307,-0.055 -0.06108,-0.11001 -0.0926,-0.16481 -0.09,-0.14596 -0.17589,-0.29355 -0.258882,-0.44372 -0.08627,-0.11561 -0.155615,-0.17174 -0.220048,-0.30511 -0.07714,-0.11596 -0.152186,-0.2333 -0.226019,-0.35159 -0.08623,-0.12539 -0.174037,-0.25102 -0.273819,-0.36597 -0.0839,-0.0958 -0.147833,-0.20104 -0.227513,-0.30004 -0.06529,-0.0664 -0.123967,-0.13794 -0.18022,-0.21214 -0.02478,-0.0325 -0.04882,-0.066 -0.07219,-0.0997 0.223922,-0.35438 0.447748,-0.70894 0.673089,-1.0607 0.259473,-0.39934 0.52411,-0.78847 0.799042,-1.15706 0.378915,-0.50798 0.480576,-1.06811 0.422176,-1.49006 0.0682,-0.15078 0.143153,-0.29167 0.220048,-0.43019 0.04676,-0.0719 0.08981,-0.15285 0.140393,-0.21722 0.710793,-0.90481 0.440577,-2.06213 -0.122471,-2.04027 z" /></clipPath></defs><sodipodi:namedview
   id="namedview4"
   pagecolor="#505050"
   bordercolor="#eeeeee"
   borderopacity="1"
   inkscape:showpageshadow="0"
   inkscape:pageopacity="0"
   inkscape:pagecheckerboard="0"
   inkscape:deskcolor="#505050"
   inkscape:zoom="0.72001072"
   inkscape:cx="259.71836"
   inkscape:cy="455.54878"
   inkscape:window-width="1920"
   inkscape:window-height="1011"
   inkscape:window-x="0"
   inkscape:window-y="0"
   inkscape:window-maximized="1"
   inkscape:current-layer="Layer_1" />
<path
   style="fill:#78D0E8;"
   d="M95.464,359.232l321.48-229.216l92.495,89.772C491.845,95.555,385.091,0,256,0  C114.615,0,0,114.615,0,256c0,139.851,112.147,253.493,251.414,255.942L95.464,359.232z"
   id="path1" />
<path
   style="fill:#4CBCD6;"
   d="M95.464,359.232l155.95,152.71c1.527,0.027,3.053,0.058,4.586,0.058c141.385,0,256-114.615,256-256  c0-12.294-0.886-24.38-2.561-36.212l-92.495-89.772L95.464,359.232z"
   id="path2" /><rect
   style="fill:#4cbcd6;fill-opacity:1;stroke-width:0.903441"
   id="rect148"
   width="49.201351"
   height="94.925758"
   x="-299.00854"
   y="619.53308"
   transform="matrix(0.99943442,-0.03362789,0.71655851,0.69752699,0,0)" />
<g
   id="g3">
	<polygon
   style="fill:#FFFFFF;"
   points="362.736,347.888 362.736,441.272 244.448,347.888  "
   id="polygon2" />
	<path
   style="fill:#FFFFFF;"
   d="M404.76,363.872H107.24c-9.552,0-17.376-7.816-17.376-17.376V142.368   c0-9.552,7.816-17.376,17.376-17.376h297.512c9.552,0,17.376,7.816,17.376,17.376v204.136   C422.128,356.056,414.312,363.872,404.76,363.872z"
   id="path3" />
</g>
<path
   style="fill:#333333;stroke-width:0.831038"
   d="m 361.13973,207.63909 v -30.66598 l -23.34953,-2.26815 c -2.1374,-9.44627 -5.98066,-18.25012 -11.1657,-26.15589 l 14.88086,-17.67981 -22.30443,-21.68513 -18.17123,14.45457 c -8.13154,-5.05418 -17.2003,-8.79729 -26.92309,-10.88845 l -2.33293,-22.655327 h -15.77088 -0.13485 -15.77088 l -2.33293,22.655327 c -9.72953,2.09116 -18.79829,5.83427 -26.92983,10.88845 l -18.16449,-14.44801 -22.30443,21.68513 14.87412,17.67325 c -5.18504,7.90577 -9.02831,16.71617 -11.17245,26.16245 l -23.34278,2.26815 v 30.66598 l 23.34278,2.26815 c 2.1374,9.45283 5.98067,18.25668 11.17245,26.169 l -14.87412,17.67325 22.30443,21.68514 18.16449,-14.44802 c 8.13828,5.06074 17.20704,8.80385 26.93658,10.88846 l 2.33293,22.65532 h 15.77087 0.13485 15.77088 l 2.33293,-22.65532 c 9.72279,-2.09116 18.79155,-5.83428 26.92983,-10.89501 l 18.17123,14.45457 22.30443,-21.68514 -14.88085,-17.68636 c 5.18503,-7.90576 9.02156,-16.70961 11.15895,-26.14933 z m -105.2111,34.31731 c -28.20418,0 -51.0615,-22.22922 -51.0615,-49.64374 0,-27.41452 22.86407,-49.64375 51.0615,-49.64375 28.20418,0 51.0615,22.22923 51.0615,49.64375 0,27.41452 -22.85732,49.64374 -51.0615,49.64374 z"
   id="path4" />
<ellipse
   style="fill:#212178;stroke-width:0.759051"
   cx="256.47672"
   cy="193.42661"
   id="circle4"
   rx="22.50457"
   ry="22.141232" />
<path
   id="text4"
   style="font-style:normal;font-variant:normal;font-weight:normal;font-stretch:normal;font-size:238.933px;font-family:Cantarell;-inkscape-font-specification:Cantarell;text-align:start;writing-mode:lr-tb;direction:ltr;text-anchor:start;white-space:pre;inline-size:122.791;fill:#2c2ca0;stroke-width:0.64"
   transform="matrix(-2.5108153,0,0,1.4789706,540.76795,-175.59805)"
   d="m 47.245721,308.01721 v 5.25 l 12.95,2.9175 31.73375,46.7825 -0.41875,0.55375 c 0.191068,0.27103 0.382408,0.5424 0.57125,0.815 0.621135,0.87632 1.227334,1.76087 1.81125,2.6625 0.466625,0.73684 0.948058,1.46512 1.41375,2.2025 0.33026,0.52017 0.663687,1.03868 0.98,1.5675 0.157347,0.23918 0.301258,0.48581 0.43125,0.74 l 0.46125,-0.6075 25.316249,38.85 -14.58375,2.68375 v 5.25 h 49.7 v -5.25 l -12.8325,-2.45 -36.05,-54.3675 0.095,-0.1225 c -0.0113,-0.0151 -0.0226,-0.0301 -0.0338,-0.0462 -0.0718,-0.10592 -0.0403,-0.0543 -0.0975,-0.1525 -0.004,-0.008 -0.21558,-0.35717 -0.13,-0.24 0.0821,0.0715 -0.28058,-0.3062 -0.2125,-0.28 0.005,0.006 0.0188,0.0245 0.015,0.0175 -0.0416,-0.0747 -0.11462,-0.1296 -0.15125,-0.2075 -0.0113,-0.0181 -0.10772,-0.15583 -0.1425,-0.20875 -0.0281,-0.0259 -0.0614,-0.056 -0.0812,-0.08 -0.002,-0.002 -0.005,-0.004 -0.007,-0.006 -0.10834,-0.0996 -0.11807,-0.11916 -0.245,-0.24375 -0.0613,-0.0692 -0.0978,-0.10774 -0.195,-0.2125 -0.062,-0.1181 -0.20393,-0.19724 -0.2425,-0.33375 -0.0645,-0.10466 -0.10094,-0.20115 -0.19,-0.29125 -0.0687,-0.11271 -0.12385,-0.23143 -0.18875,-0.34625 -0.0103,-0.087 -0.15445,-0.14895 -0.18375,-0.23375 -0.12046,-0.16199 -0.21388,-0.33835 -0.3175,-0.51125 -0.10715,-0.18962 -0.20799,-0.38347 -0.32875,-0.565 -0.14914,-0.22817 -0.30396,-0.45232 -0.44,-0.68875 -0.15909,-0.2264 -0.31415,-0.45614 -0.475,-0.68125 -0.15694,-0.22487 -0.28112,-0.4693 -0.44375,-0.69 -0.23165,-0.28553 -0.46224,-0.57154 -0.6525,-0.8875 -0.17605,-0.26456 -0.3435,-0.53467 -0.5125,-0.80375 l -0.0887,0.115 -21.117499,-31.5 14.58375,-3.15 v -5.25 z m 65.759999,0 c 0.0499,0.006 0.1261,0.0137 0.17125,0.0188 0.009,-0.006 0.0174,-0.0127 0.0263,-0.0188 z m 10.9975,5.75375 c -0.10594,0.0545 -0.20991,0.1013 -0.31125,0.14125 0.61758,0.0284 1.23519,0.058 1.8525,0.0925 0.002,-0.003 0.003,-0.006 0.005,-0.009 -0.51463,-0.0794 -1.03025,-0.15415 -1.54625,-0.225 z m -35.056249,54.76625 c 0.006,0.0412 0.01595,0.0767 0.02125,0.11875 0.02998,0.23787 0.06257,0.47496 0.095,0.7125 0.110338,-0.0768 0.19699,-0.13377 0.3,-0.20625 -0.138352,-0.20863 -0.275457,-0.418 -0.41625,-0.625 z m 3.08875,4.80625 c -0.04625,0.0306 -0.09172,0.0625 -0.1375,0.0937 0.163713,0.14588 0.310318,0.31598 0.45875,0.48375 -0.02202,-0.0461 -0.03663,-0.0808 -0.03125,-0.085 -0.02241,-0.0813 -0.208286,-0.3541 -0.29,-0.4925 z m 1.24,2.595 c 0.016,0.0165 0.03148,0.0335 0.0475,0.05 l 0.03375,-0.045 c -0.02208,10e-4 -0.05779,-0.006 -0.08125,-0.005 z m -11.09375,36.53 c -0.03284,-0.0228 -0.07433,0.0308 -0.11125,0.0462 -0.008,0.009 -0.01205,0.0124 -0.02,0.0213 0.01033,-0.004 0.02097,-0.008 0.03125,-0.0125 0.03455,-0.0151 0.13095,-0.0335 0.1,-0.055 z"
   clip-path="url(#clipPath138)" /><path
   style="fill:#4cbcd6;fill-opacity:1;stroke-width:0.103489"
   d="m 387.98067,799.7468 c -0.39844,-0.0155 -2.07496,-0.0778 -3.72561,-0.13835 -15.7371,-0.57737 -33.89161,-2.39383 -48.95035,-4.89773 l -1.44885,-0.24091 0.67268,-0.0663 c 0.36997,-0.0365 11.95879,-0.44072 25.75292,-0.89829 l 25.08024,-0.83196 3.61212,3.53444 c 1.98666,1.94394 3.61211,3.55097 3.61211,3.57117 0,0.039 -3.38635,0.0155 -4.60526,-0.032 z"
   id="path150"
   transform="scale(0.64)" /><ellipse
   style="fill:#ffffff;fill-opacity:1;stroke-width:0.552266"
   id="path95"
   ry="28.61451"
   rx="18.394375"
   cy="-285.23807"
   cx="222.06592"
   transform="matrix(0.16715024,0.98593146,-0.86978304,-0.49343433,0,0)" /><g
   style="fill:#000000"
   id="g4"
   transform="matrix(6.682256,-0.25503419,0.26528878,6.0660389,218.61309,233.05565)"><g
     id="g1"
     transform="matrix(-1.1178161,0,0,0.79217265,20.33369,7.095533)">
	<path
   d="m 0,35.667 c 0,0 11.596,-37.07 35.738,-35.55 0,0 -2.994,4.849 -10.551,6.416 0,0 3.518,0.429 6.369,-0.522 0,0 -1.711,5.515 -11.025,6.273 0,0 5.133,1.331 7.414,0.57 0,0 -0.619,4.111 -10.102,6.154 -0.562,0.12 -4.347,1.067 -1.306,1.448 0,0 4.371,0.763 5.514,0.381 0,0 -3.744,5.607 -12.928,5.132 -0.903,-0.047 -1.332,0 -1.332,0 z"
   id="path1-3"
   style="fill:#212178" />
</g></g><path
   style="fill:#4cbcd6;fill-opacity:1;stroke-width:0.64"
   id="path96"
   sodipodi:type="arc"
   sodipodi:cx="293.00531"
   sodipodi:cy="353.88953"
   sodipodi:rx="1.9932333"
   sodipodi:ry="3.4428577"
   sodipodi:start="0"
   sodipodi:end="0.41882276"
   sodipodi:arc-type="slice"
   d="m 294.99854,353.88953 a 1.9932333,3.4428577 0 0 1 -0.17228,1.40016 l -1.82095,-1.40016 z" /></svg>
