<?xml version="1.0" encoding="utf-8"?>

<!-- Uploaded to: SVG Repo, www.svgrepo.com, Generator: SVG Repo Mixer Tools -->
<svg fill="#000000" height="800px" width="800px" version="1.1" id="Icons" xmlns="http://www.w3.org/2000/svg" xmlns:xlink="http://www.w3.org/1999/xlink" 
	 viewBox="0 0 32 32" xml:space="preserve">
<g>
	<path d="M26.8,15.4c-0.3-0.3-0.7-0.5-1.1-0.3C25.3,15.2,25,15.6,25,16c0,5-4,9-9,9c-0.6,0-1,0.4-1,1s0.4,1,1,1
		c5.2,0,9.5-3.6,10.7-8.4l1.5,2c0.3,0.4,1,0.5,1.4,0.2c0.4-0.3,0.5-1,0.2-1.4L26.8,15.4z"/>
	<path d="M5.2,16.6C5.4,16.9,5.7,17,6,17c0.1,0,0.2,0,0.3-0.1C6.7,16.8,7,16.4,7,16c0-5,4-9,9-9c0.6,0,1-0.4,1-1s-0.4-1-1-1
		c-5.2,0-9.5,3.6-10.7,8.4l-1.5-2c-0.3-0.4-1-0.5-1.4-0.2c-0.4,0.3-0.5,1-0.2,1.4L5.2,16.6z"/>
	<path d="M29,2H19c-0.6,0-1,0.4-1,1v7c0,0.6,0.4,1,1,1h4v1h-2c-0.6,0-1,0.4-1,1s0.4,1,1,1h6c0.6,0,1-0.4,1-1s-0.4-1-1-1h-2v-1h4
		c0.6,0,1-0.4,1-1V3C30,2.4,29.6,2,29,2z"/>
	<path d="M13,18H3c-0.6,0-1,0.4-1,1v7c0,0.6,0.4,1,1,1h4v1H5c-0.6,0-1,0.4-1,1s0.4,1,1,1h6c0.6,0,1-0.4,1-1s-0.4-1-1-1H9v-1h4
		c0.6,0,1-0.4,1-1v-7C14,18.4,13.6,18,13,18z"/>
</g>
</svg>